<svg width="56" height="18" viewBox="0 0 56 18" fill="none" xmlns="http://www.w3.org/2000/svg">
<path d="M0.824 17C0.68 17 0.576 16.976 0.512 16.928C0.464 16.864 0.44 16.76 0.44 16.616V0.631999C0.44 0.487999 0.464 0.391999 0.512 0.344C0.576 0.28 0.68 0.248 0.824 0.248H8.576C10.064 0.248 11.216 0.639999 12.032 1.424C12.864 2.208 13.28 3.296 13.28 4.688V12.56C13.28 13.952 12.864 15.04 12.032 15.824C11.216 16.608 10.064 17 8.576 17H0.824ZM8.072 13.616C8.632 13.616 9.032 13.488 9.272 13.232C9.528 12.96 9.656 12.528 9.656 11.936V5.312C9.656 4.72 9.528 4.296 9.272 4.04C9.032 3.768 8.632 3.632 8.072 3.632H4.064V13.616H8.072ZM16.2459 17C16.1019 17 15.9979 16.976 15.9339 16.928C15.8859 16.864 15.8619 16.76 15.8619 16.616V0.631999C15.8619 0.487999 15.8859 0.391999 15.9339 0.344C15.9979 0.28 16.1019 0.248 16.2459 0.248H26.5419C26.6859 0.248 26.7819 0.28 26.8299 0.344C26.8939 0.391999 26.9259 0.487999 26.9259 0.631999V3.248C26.9259 3.392 26.8939 3.496 26.8299 3.56C26.7819 3.608 26.6859 3.632 26.5419 3.632H19.4859V7.256H26.0379C26.1819 7.256 26.2779 7.288 26.3259 7.352C26.3899 7.4 26.4219 7.496 26.4219 7.64V10.256C26.4219 10.4 26.3899 10.504 26.3259 10.568C26.2779 10.616 26.1819 10.64 26.0379 10.64H19.4859V16.616C19.4859 16.76 19.4539 16.864 19.3899 16.928C19.3419 16.976 19.2459 17 19.1019 17H16.2459ZM29.4646 17C29.3206 17 29.2166 16.976 29.1526 16.928C29.1046 16.864 29.0806 16.76 29.0806 16.616V0.631999C29.0806 0.487999 29.1046 0.391999 29.1526 0.344C29.2166 0.28 29.3206 0.248 29.4646 0.248H37.2166C38.7046 0.248 39.8566 0.639999 40.6726 1.424C41.5046 2.208 41.9206 3.296 41.9206 4.688V12.56C41.9206 13.952 41.5046 15.04 40.6726 15.824C39.8566 16.608 38.7046 17 37.2166 17H29.4646ZM36.7126 13.616C37.2726 13.616 37.6726 13.488 37.9126 13.232C38.1686 12.96 38.2966 12.528 38.2966 11.936V5.312C38.2966 4.72 38.1686 4.296 37.9126 4.04C37.6726 3.768 37.2726 3.632 36.7126 3.632H32.7046V13.616H36.7126ZM50.9105 17.12C49.5505 17.12 47.4785 17.096 44.6945 17.048C44.5505 17.048 44.4465 17.024 44.3825 16.976C44.3345 16.912 44.3105 16.808 44.3105 16.664V14.048C44.3105 13.904 44.3345 13.808 44.3825 13.76C44.4465 13.696 44.5505 13.664 44.6945 13.664C47.3825 13.712 49.2865 13.736 50.4065 13.736C50.8385 13.736 51.1505 13.712 51.3425 13.664C51.5505 13.616 51.7025 13.504 51.7985 13.328C51.9105 13.152 51.9665 12.864 51.9665 12.464V12.08C51.9665 11.648 51.8945 11.344 51.7505 11.168C51.6225 10.976 51.3425 10.816 50.9105 10.688L47.2145 9.488C46.4785 9.264 45.8945 9.04 45.4625 8.816C45.0305 8.576 44.6625 8.192 44.3585 7.664C44.0545 7.136 43.9025 6.408 43.9025 5.48V4.184C43.9025 2.824 44.3025 1.808 45.1025 1.136C45.9185 0.464 47.0865 0.128 48.6065 0.128C49.7585 0.128 51.6305 0.151999 54.2225 0.199999C54.3665 0.199999 54.4625 0.231999 54.5105 0.295999C54.5745 0.343999 54.6065 0.44 54.6065 0.584V3.2C54.6065 3.344 54.5745 3.448 54.5105 3.512C54.4625 3.56 54.3665 3.584 54.2225 3.584C51.8705 3.536 50.1665 3.512 49.1105 3.512C48.6625 3.512 48.3345 3.536 48.1265 3.584C47.9345 3.616 47.7825 3.72 47.6705 3.896C47.5745 4.056 47.5265 4.328 47.5265 4.712V5.048C47.5265 5.48 47.5905 5.776 47.7185 5.936C47.8625 6.08 48.1505 6.224 48.5825 6.368L52.3025 7.592C53.0385 7.832 53.6225 8.064 54.0545 8.288C54.4865 8.512 54.8545 8.888 55.1585 9.416C55.4625 9.944 55.6145 10.68 55.6145 11.624V12.944C55.6145 14.32 55.2065 15.36 54.3905 16.064C53.5745 16.768 52.4145 17.12 50.9105 17.12Z" fill="white"/>
</svg>
